<svg width="455" height="122" viewBox="0 0 455 122" fill="none" xmlns="http://www.w3.org/2000/svg">
<g clip-path="url(#clip0_2002_22)">
<path d="M0.113819 13.782C0.269928 16.5948 0.967798 19.4112 1.8187 22.0913C2.66965 24.7713 3.75318 27.467 4.9377 30.0718C6.12227 32.6766 7.39865 35.242 8.70869 37.7866C10.0187 40.3308 11.39 43.0836 13.2201 45.4288C16.4341 49.5516 20.9736 52.3711 25.3474 55.1506C30.0549 58.1417 34.5757 61.3954 38.7598 65.0688C40.8841 66.9342 42.9288 68.8901 44.8845 70.9242C45.2767 71.3318 45.7971 71.7666 46.008 72.3039C46.0691 72.4549 46.0328 72.6811 46.0848 72.3973C46.106 72.2918 46.1367 72.2524 46.1579 72.2282C46.115 72.2706 46.0817 72.3221 46.0388 72.367C46.161 72.2403 45.9621 72.4216 45.9131 72.4579C45.2308 72.968 44.4379 73.3119 43.6449 73.6619C43.3239 73.8038 43.0024 73.982 42.6658 74.0845C41.9279 74.3168 42.2216 75.7177 43.0236 75.4667C42.8798 75.5122 43.1771 75.4278 43.2351 75.4127C43.3174 75.3915 43.4032 75.3672 43.486 75.343C43.6848 75.2859 43.8807 75.2223 44.0765 75.1531C44.5237 74.99 44.9734 74.8208 45.4019 74.6128C46.1029 74.2719 47.0366 73.828 47.3703 73.0796C47.6363 72.4817 47.3945 71.7272 47.0795 71.1929C46.7182 70.5834 46.2039 70.0794 45.7143 69.5724C44.7165 68.5401 43.6939 67.5286 42.6532 66.5419C38.4721 62.5756 33.9514 58.9537 29.1399 55.7576C24.6923 52.8023 19.8289 50.2642 16.0117 46.4853C13.9949 44.49 12.4615 42.169 11.1205 39.694C9.73408 37.1317 8.38119 34.5476 7.07725 31.9428C4.48472 26.7665 2.23499 21.3969 1.10861 15.7136C0.970878 15.0253 0.851514 14.3339 0.719884 13.6461C0.621918 13.1361 0.0862619 13.3199 0.113819 13.782Z" fill="white"/>
<path d="M0.679948 14.2284C0.591169 12.9821 2.10628 12.5472 3.098 12.5957C4.37437 12.6589 5.6446 13.1689 6.77102 13.7365C7.95862 14.337 9.06971 15.0859 10.1473 15.8555C11.3223 16.6943 12.4978 17.5336 13.6763 18.3699C18.4267 21.7413 23.113 25.2 27.7286 28.7497C30.0367 30.5242 32.3261 32.3205 34.5973 34.1405C36.8681 35.9606 38.9435 37.6114 40.9421 39.54C42.9408 41.4686 44.6089 43.627 46.1766 45.8964C47.7437 48.1694 49.2614 50.4662 51.0122 52.6124C52.7631 54.7582 54.7189 56.862 56.7822 58.779C58.5573 60.4298 60.7215 62.0898 63.2375 62.3069C63.8618 62.3615 64.468 62.2923 65.0742 62.1504C65.6798 62.0085 65.4779 60.6955 64.7799 60.8434C62.1937 61.3924 59.7544 59.6875 57.942 58.0725C55.8823 56.2373 54.0027 54.1729 52.2584 52.0478C48.6678 47.6836 45.9742 42.6397 41.946 38.6285C39.9383 36.6272 37.716 34.8465 35.5033 33.072C33.1771 31.2065 30.8291 29.3622 28.463 27.5452C23.7525 23.9234 18.9652 20.3949 14.1048 16.969C12.8955 16.1151 11.6746 15.2788 10.4441 14.4551C9.3421 13.7123 8.23712 12.9669 7.0465 12.3665C5.09365 11.3822 1.37166 10.1268 0.171851 12.8008C-0.0607735 13.3199 -0.0577431 13.9178 0.184067 14.437C0.349362 14.7839 0.695243 14.5425 0.673792 14.2314L0.679948 14.2284Z" fill="white"/>
<path d="M45.6679 73.4386C44.4621 73.4927 43.2836 73.9335 42.142 74.2987C41.0003 74.6638 39.8834 75.0804 38.7841 75.5576C36.6082 76.502 34.4011 77.7185 32.7179 79.4027C32.4665 79.6532 32.4514 80.5859 32.9349 80.6101C33.6208 80.6435 34.3062 80.6733 34.9921 80.7066L34.8755 79.5628C31.8054 80.5374 29.1733 82.563 27.3856 85.1981C27.2447 85.4061 27.3396 86.4838 27.753 86.1939C28.3284 85.7894 28.9774 85.6354 29.6754 85.7409L29.47 84.6304C28.668 85.6111 27.857 86.5833 27.0489 87.561C26.2408 88.5391 25.399 89.4355 24.6888 90.4526C23.9792 91.4697 23.5719 92.5988 23.1893 93.7215C22.8068 94.8446 22.4514 95.9793 22.2405 97.1474C21.8549 99.2754 21.98 101.448 22.5372 103.534C22.8068 104.548 23.1283 105.571 23.5961 106.513C24.0645 107.455 24.5975 108.261 25.2032 109.064C26.5992 110.911 28.2612 112.631 30.0454 114.119C30.3058 114.337 30.6273 114.113 30.7343 113.854C30.8661 113.528 30.7833 113.147 30.5294 112.909C29.1152 111.587 27.7101 110.271 26.4766 108.78C25.243 107.289 24.2573 105.686 23.6577 103.827C23.0576 101.968 22.782 100.021 23.0177 98.0801C23.1495 96.9903 23.4311 95.9399 23.7617 94.8925C24.0923 93.8452 24.4319 92.8402 24.9553 91.8954C25.5797 90.7728 26.4917 89.7885 27.2997 88.7927C28.1477 87.7453 28.9926 86.6979 29.8465 85.6536C30.0762 85.3758 30.11 84.6153 29.6416 84.5431C28.8977 84.431 28.1477 84.6092 27.5354 85.038L27.9029 86.0338C29.6018 83.5078 32.1728 81.6363 35.0835 80.6824C35.457 80.5617 35.3899 79.5537 34.9674 79.5385C34.2664 79.5113 33.5961 79.433 32.9077 79.3093L33.1247 80.5162C34.0433 79.7769 34.9644 79.077 35.9864 78.4821C37.009 77.8877 38.028 77.3807 39.0935 76.9216C40.1584 76.4631 41.2759 76.0465 42.3807 75.645C43.4855 75.2435 44.71 74.9117 45.7537 74.2956C45.9682 74.1689 45.9985 73.4235 45.6679 73.4386Z" fill="white"/>
<path d="M98.2305 60.1127L98.1639 60.1309L98.1487 60.14C98.1487 60.14 98.1366 60.1551 98.1306 60.1642L98.1245 60.1849C98.122 60.197 98.119 60.2061 98.122 60.2182V60.2425L98.1306 60.2637L98.1457 60.2879L98.1669 60.3031L98.2335 60.3207C98.2335 60.3207 98.2603 60.3238 98.2724 60.3207C98.2845 60.3147 98.2966 60.3061 98.3057 60.294L98.3178 60.2728C98.3239 60.2546 98.3269 60.2364 98.3269 60.2182C98.3269 60.2031 98.3269 60.191 98.3209 60.1793C98.3209 60.1672 98.3118 60.1551 98.3057 60.146C98.2966 60.1339 98.2875 60.1248 98.2724 60.1187C98.2603 60.1127 98.2457 60.1157 98.2335 60.1187L98.2305 60.1127Z" fill="white"/>
<path d="M69.3713 118.288C70.513 118.943 71.9943 119.109 73.3015 119.046C74.6082 118.982 76.0134 118.656 77.0354 117.799C77.5407 117.376 77.9419 116.842 78.1897 116.235C78.2725 116.033 78.4163 114.753 77.7854 115.079C77.6542 115.146 77.5836 115.324 77.5038 115.438C77.4059 115.58 77.2989 115.722 77.1858 115.852C76.3652 116.8 75.0953 117.262 73.8739 117.416C73.1269 117.509 72.3618 117.521 71.6117 117.467C70.8617 117.413 70.1642 117.289 69.4263 117.274C68.9887 117.265 69.1078 118.137 69.3713 118.288Z" fill="white"/>
<path d="M45.9773 101.37C47.1927 102.013 48.509 102.429 49.6108 103.268C50.8135 104.186 51.5236 105.475 51.885 106.912L51.833 106.359C51.83 106.437 51.827 106.471 51.8421 106.365C51.8361 106.414 51.8204 106.462 51.8053 106.507C51.8421 106.408 51.7992 106.522 51.781 106.558C51.7472 106.628 51.7134 106.697 51.6766 106.767C51.5544 106.984 51.3828 107.201 51.2147 107.406C50.7524 107.962 50.223 108.463 49.6809 108.946C48.6649 109.851 47.5752 110.666 46.5037 111.503C45.8123 112.045 45.093 112.613 44.6978 113.41C44.5848 113.639 44.5757 113.941 44.6398 114.186C44.6706 114.303 44.7958 114.665 44.9891 114.611C47.3643 113.953 50.2043 113.491 52.3564 115.019C52.5674 115.169 52.745 115.338 52.8768 115.562C52.9101 115.631 52.9101 115.628 52.8768 115.55C52.8889 115.586 52.901 115.625 52.9131 115.662C52.9348 115.746 52.9621 115.83 52.9838 115.915C53.0726 116.256 53.1428 116.603 53.1887 116.95C53.1947 117.011 53.1948 116.987 53.1826 116.875C53.1887 116.966 53.1917 117.059 53.1947 117.152C53.1978 117.276 53.2043 117.4 53.2013 117.524C53.1948 117.678 53.1705 117.904 53.1488 118.001C53.0756 118.339 52.9131 118.659 52.7693 118.997C52.6411 119.296 52.632 119.718 52.794 120.008C52.9288 120.249 53.1645 120.273 53.2836 119.996C53.5899 119.274 53.8408 118.592 53.8776 117.801C53.9145 116.935 53.8009 116.126 53.6021 115.287C53.5223 114.946 53.4305 114.614 53.2346 114.318C52.956 113.896 52.5275 113.585 52.0899 113.337C51.1562 112.806 50.0605 112.568 48.9895 112.547C47.6212 112.52 46.268 112.83 44.9583 113.196L45.252 114.397C45.5548 113.79 46.1277 113.34 46.6572 112.924C47.0609 112.604 47.4743 112.293 47.8811 111.976C48.9375 111.155 49.9873 110.316 50.9331 109.374C51.6831 108.629 52.5921 107.657 52.5644 106.531C52.5522 106.075 52.3564 105.58 52.1969 105.155C52.0379 104.729 51.8573 104.34 51.6342 103.962C51.2577 103.329 50.7862 102.752 50.2199 102.275C49.0596 101.3 47.5414 100.618 46.0293 100.428C45.6805 100.383 45.7603 101.249 45.9869 101.367L45.9773 101.37Z" fill="white"/>
<path d="M30.2689 113.145C29.7607 113.884 29.5189 114.868 29.317 115.728C29.1273 116.534 28.9466 117.482 29.4609 118.212C29.9752 118.943 31.0038 119.103 31.7811 119.332C32.6961 119.601 33.6268 119.809 34.5666 119.972C38.411 120.642 42.3685 120.404 46.2528 120.34C48.5175 120.301 50.7766 120.171 53.0448 120.183C53.5036 120.183 53.4824 118.801 53.011 118.813C51.1809 118.861 49.3594 118.822 47.5293 118.795C45.7138 118.767 43.8928 118.807 42.0778 118.828C40.2628 118.849 38.4691 118.885 36.6723 118.716C34.8755 118.547 33.1367 118.209 31.4197 117.738C31.0033 117.624 30.5385 117.536 30.1559 117.334C29.7733 117.132 29.8652 116.896 29.9293 116.537C30.1069 115.571 30.4925 114.678 30.7373 113.733C30.8044 113.467 30.6056 112.655 30.2689 113.145Z" fill="white"/>
<path d="M53.4031 117.621C54.1465 118.206 54.8506 118.831 55.4845 119.531C55.7692 119.845 56.0352 120.177 56.3779 120.43C56.761 120.711 57.1925 120.826 57.6609 120.886C59.6686 121.149 61.7622 121.255 63.7856 121.173C64.8228 121.131 65.8605 121.025 66.877 120.817C67.5563 120.678 68.3795 120.554 68.9736 120.165C69.5 119.815 69.717 119.235 69.7998 118.638C69.9134 117.81 69.8457 116.923 69.5 116.157C69.1543 115.39 68.4805 114.584 67.6295 114.279C66.5525 113.893 65.3462 113.968 64.2232 114.025L64.4432 115.357C65.1751 114.629 65.9004 113.86 66.2617 112.882C66.6746 111.768 66.5434 110.539 65.9862 109.495C65.2483 108.113 63.8805 107.289 62.6313 106.401C62.01 105.961 61.3367 105.535 60.7886 105.007C60.3449 104.581 60.1612 105.907 60.4737 106.205C61.6365 107.325 63.1179 108.107 64.367 109.13C65.0252 109.667 65.6955 110.449 65.7873 111.315C65.9034 112.417 64.7466 113.434 64.0364 114.129C63.7977 114.361 63.7578 115.48 64.2565 115.459C65.8085 115.39 67.7461 115.242 68.7162 116.697C69.0468 117.192 69.1603 117.772 69.0347 118.354C69.0165 118.438 68.9766 118.553 68.8757 118.662C68.7409 118.807 68.5572 118.894 68.3735 118.969C67.6512 119.271 66.8341 119.407 66.0689 119.54C65.1872 119.691 64.2933 119.775 63.3995 119.812C61.6093 119.884 59.8125 119.772 58.0278 119.637C57.5352 119.601 57.039 119.555 56.6232 119.268C56.2739 119.027 56.0049 118.674 55.7137 118.372C55.0802 117.714 54.3948 117.134 53.611 116.658C53.2532 116.44 53.1734 117.43 53.4091 117.618L53.4031 117.621Z" fill="white"/>
<path d="M24.1103 92.6291C23.4189 92.611 22.7668 92.7741 22.1026 92.9458C21.3803 93.1331 20.6823 93.3685 19.9903 93.6432C19.3508 93.8997 18.7265 94.1835 18.1143 94.4941C17.551 94.7809 16.8717 95.0678 16.4275 95.5299C15.9839 95.9914 15.9289 96.6434 15.8552 97.2529C15.782 97.863 15.6472 98.4573 15.4544 99.0401C15.0567 100.25 14.4319 101.376 13.7313 102.436C12.9167 103.667 11.9744 104.808 11.0346 105.949C10.808 106.223 10.7222 107.183 11.2673 107.195C11.772 107.204 12.2772 107.217 12.7825 107.226L12.4731 106.093C11.5151 108.104 12.2162 110.377 13.6087 112C14.3006 112.809 15.1516 113.464 16.0207 114.077C16.4401 114.37 16.8747 114.648 17.2724 114.964C17.5909 115.218 17.9644 115.523 18.0315 115.939C18.0653 116.154 18.2183 116.504 18.4878 116.498C18.7573 116.492 18.8855 116.135 18.9163 115.918C19.0293 115.152 19.8192 114.614 20.5566 114.539L20.2386 114.321C20.067 114.065 20.2477 113.564 20.1281 113.978C20.0948 114.098 20.061 114.222 20.0428 114.346C20.0029 114.608 20.0211 114.901 20.1099 115.152C20.2507 115.553 20.5415 115.788 20.9669 115.849C21.4171 115.912 21.8881 115.77 22.3292 115.692C22.8955 115.592 23.4552 115.489 24.0185 115.378C24.4838 115.284 24.9673 115.239 25.304 114.877C25.6593 114.491 25.895 113.981 26.2069 113.561C26.4855 113.187 26.7949 112.837 27.2017 112.595C27.609 112.353 28.1354 112.227 28.6159 112.136C28.9985 112.067 28.9405 111.216 28.6619 111.059C28.4721 110.95 28.2641 110.838 28.0436 110.835C27.8387 110.835 27.606 110.908 27.4132 110.977C26.9817 111.131 26.6112 111.406 26.2897 111.723C25.947 112.061 25.6775 112.456 25.4175 112.858C25.1818 113.22 25.0042 113.697 24.5479 113.805C24.0281 113.932 23.4769 113.962 22.9475 114.053C22.418 114.144 21.9098 114.261 21.3894 114.324C21.2455 114.343 21.0679 114.364 20.924 114.324C20.9059 114.318 20.7832 114.255 20.7741 114.258C20.9028 114.219 20.7282 115.127 20.918 114.681C21.1078 114.234 21.1047 113.637 20.8352 113.223C20.7741 113.127 20.6515 112.994 20.5172 113.005C19.1611 113.135 18.2122 114.24 18.0164 115.526L18.9042 115.505C18.7603 114.542 18.1022 113.887 17.3244 113.356C16.5073 112.797 15.6684 112.269 14.9093 111.629C13.6425 110.564 12.253 108.747 13.0545 107.023C13.1893 106.731 13.2443 105.904 12.7456 105.891C12.2464 105.879 11.7357 105.867 11.2304 105.852L11.4631 107.099C13.0732 105.158 14.7044 103.148 15.7053 100.824C15.9531 100.244 16.1706 99.6527 16.3266 99.0401C16.4952 98.3791 16.5441 97.718 16.6602 97.0509C16.7581 96.4833 17.4592 96.2268 17.9185 95.9763C18.5216 95.6475 19.1399 95.3455 19.7733 95.0708C20.4895 94.7597 21.2238 94.4971 21.9617 94.2406C22.6996 93.9841 23.4739 93.7972 24.1961 93.4801C24.45 93.3685 24.4318 92.6352 24.1103 92.6291Z" fill="white"/>
<path d="M29.795 28.8522C29.2868 27.2978 28.9254 25.6798 28.5524 24.089C27.9674 21.6024 27.438 19.1032 27.0125 16.5827C26.8994 15.9005 26.7919 15.2187 26.694 14.5364C26.6451 14.1951 26.5991 13.8542 26.5562 13.5133C26.535 13.3563 26.5169 13.1992 26.4982 13.0421C26.474 12.8462 26.4982 13.0664 26.483 12.9184C26.474 12.828 26.4613 12.7376 26.4523 12.6467C26.3084 11.3549 26.1923 10.0571 26.1434 8.75626C26.1217 8.17375 26.1126 7.5882 26.1247 7.00569C26.1313 6.72799 26.1434 6.44725 26.1585 6.1696C26.1676 6.00962 26.1464 6.32656 26.1615 6.12127C26.1676 6.06093 26.1706 5.99755 26.1767 5.9372C26.1893 5.80737 26.2014 5.67758 26.2135 5.5478C26.2655 5.0679 26.3422 4.59103 26.4462 4.12016C26.4709 4.01149 26.474 4.00851 26.4432 4.1292C26.4583 4.07189 26.474 4.01452 26.4891 3.95715C26.5169 3.85454 26.5471 3.75192 26.581 3.65233C26.642 3.46215 26.7187 3.27504 26.7919 3.09092C26.8318 2.99133 26.8288 3.01548 26.7829 3.10905C26.8046 3.06375 26.8257 3.01845 26.8505 2.97321C26.8934 2.89473 26.9358 2.81323 26.9817 2.73778C27.0246 2.66834 27.0675 2.60193 27.1134 2.53558C27.1412 2.49932 27.1685 2.46311 27.1962 2.42387C27.1013 2.52345 27.2023 2.41483 27.1962 2.42387C27.3093 2.30615 27.4168 2.19748 27.5419 2.09188C27.6525 1.99831 27.5541 2.07072 27.6459 2.01638C27.7196 1.97416 27.7898 1.9319 27.8665 1.89867C27.9306 1.86852 27.9982 1.84135 28.0653 1.81721C28.1052 1.80211 28.1451 1.79302 28.188 1.77797C28.3101 1.73873 28.1082 1.79004 28.2031 1.77191C28.3626 1.74172 28.5398 1.70247 28.7023 1.7206C28.9743 1.74777 29.3478 2.10693 29.5835 2.30313C29.954 2.60799 30.2967 2.94907 30.6121 3.31126C31.8669 4.76308 32.7824 6.47745 33.9362 8.00775C34.6645 8.97659 35.3317 9.99377 36.0419 10.9747C36.752 11.9559 37.4808 12.9427 38.2152 13.9148C41.1537 17.8023 44.2572 21.5751 47.5141 25.2091C49.0873 26.9655 50.7342 28.6527 52.3442 30.3763C53.6631 31.7888 54.8113 33.3795 55.7814 35.0455C57.7528 38.4204 59.0565 42.0872 60.4369 45.7187C61.8173 49.3496 63.2406 53.02 65.2912 56.355C65.8086 57.1943 66.3966 57.9846 67.027 58.7426C67.5564 59.3794 68.4255 58.4346 68.0096 57.8402C65.6738 54.5168 63.9356 50.9101 62.4603 47.1493C60.985 43.3881 59.6626 39.6395 57.8537 36.054C56.9447 34.2521 55.9101 32.4983 54.6735 30.8954C53.3083 29.1269 51.6614 27.5907 50.1401 25.9545C46.7762 22.3357 43.5687 18.5719 40.5263 14.6814C38.996 12.7225 37.5051 10.7303 36.0606 8.70799C35.3963 7.77833 34.7195 6.85777 34.0649 5.92508C33.486 5.10112 32.9565 4.24692 32.3842 3.41993C31.8118 2.59289 31.1815 1.78095 30.4375 1.09279C30.061 0.742671 29.6512 0.437803 29.2131 0.169194C28.9531 0.00920956 28.7422 -0.01796 28.4449 0.00920901C27.7045 0.0756165 27.0372 0.434827 26.5628 0.996235C25.2404 2.55669 25.0476 4.86266 24.9679 6.80949C24.8579 9.47463 25.1455 12.1458 25.5372 14.7809C25.9289 17.416 26.474 20.1051 27.1104 22.7341C27.3769 23.8355 27.6737 24.9314 27.9921 26.0212C28.0255 26.1388 28.0593 26.2535 28.0931 26.3711C28.1113 26.4342 28.133 26.4948 28.1542 26.5585C28.1542 26.5494 28.1203 26.4555 28.1421 26.5282C28.1632 26.6004 28.185 26.664 28.2062 26.7302C28.2708 26.9387 28.3349 27.1468 28.402 27.3518C28.4757 27.5786 28.5615 27.8018 28.6407 28.028C28.6685 28.1068 28.6962 28.182 28.7265 28.2603C28.7664 28.3633 28.7386 28.2876 28.7386 28.2906C28.7664 28.3664 28.7941 28.4386 28.8214 28.5113C28.9193 28.7648 29.0203 29.0153 29.1338 29.2627C29.3756 29.8001 29.9449 29.2991 29.8011 28.8582L29.795 28.8522Z" fill="white"/>
<path d="M17.9125 45.1394C15.6781 42.1872 13.909 38.9032 12.3172 35.5803C10.6183 32.0307 9.02379 28.43 7.38926 24.8531C6.4251 22.7462 5.44872 20.6424 4.4784 18.5391L4.25805 19.3809C5.94148 18.8921 7.64944 19.84 9.03908 20.6848C10.5451 21.5994 11.9593 22.6589 13.318 23.7724C16.1525 26.0939 18.9991 28.4149 21.772 30.8081C23.0853 31.9433 24.3557 33.1326 25.4847 34.4486C26.6143 35.7641 27.5631 37.1408 28.457 38.5835C30.2447 41.4752 32.0385 44.4208 34.3738 46.9261C36.905 49.6425 39.8803 51.9696 43.1337 53.7835C43.8625 54.188 44.3889 53.023 43.7186 52.6306C40.8322 50.9464 38.1905 48.8759 35.9102 46.4489C34.7932 45.2601 33.7338 44.0133 32.7728 42.6973C31.7049 41.2333 30.7494 39.6971 29.7672 38.179C28.7846 36.661 27.8079 35.251 26.694 33.8992C25.5796 32.5468 24.285 31.2944 22.9536 30.1233C21.6221 28.9522 20.1685 27.7811 18.7604 26.6282C17.2851 25.4177 15.8189 24.192 14.3189 23.0088C12.8194 21.8256 11.1785 20.5732 9.46758 19.5592C7.75659 18.5451 5.94763 17.7392 4.01623 18.2825C3.69791 18.3729 3.69483 18.9012 3.79583 19.1244C5.50379 22.9154 7.22094 26.7004 8.94722 30.4823C10.5052 33.9052 11.9775 37.4003 13.8994 40.6449C14.9467 42.4135 16.1525 44.089 17.5728 45.5828C17.8544 45.8788 18.1022 45.3778 17.9155 45.1304L17.9125 45.1394Z" fill="white"/>
<path d="M33.4738 49.3042C33.8902 50.5475 34.7164 51.6797 35.5003 52.7271C36.2836 53.7744 37.1744 54.7279 38.1142 55.6273C40.0119 57.4443 42.2004 58.9386 44.5725 60.0885C45.2211 60.4026 45.8823 60.6889 46.5556 60.9459C47.2294 61.2025 47.9915 61.4949 48.7289 61.6156C49.3532 61.7186 49.4638 60.7465 48.9373 60.5354C47.7371 60.0551 46.4975 59.7082 45.319 59.1739C44.141 58.6396 43.0604 58.0361 42.0045 57.3418C39.8772 55.9444 37.9517 54.2512 36.3356 52.2983C35.8919 51.764 35.4634 51.2206 35.0622 50.6561C34.6614 50.092 34.2819 49.4643 33.8105 48.9209C33.5596 48.634 33.4097 49.0956 33.4768 49.2981L33.4738 49.3042Z" fill="white"/>
<path d="M39.0201 59.9319C39.5435 60.4268 40.5015 60.5384 41.1899 60.6985C41.9949 60.8828 42.8096 61.0278 43.6297 61.1363C45.2398 61.3474 46.9846 61.4439 48.5911 61.1697C49.0262 61.0939 49.0383 60.3273 48.5699 60.3213C47.777 60.3092 46.9876 60.3516 46.1917 60.3395C45.3957 60.3273 44.5599 60.2637 43.7488 60.1824C42.9378 60.1011 42.1484 59.9804 41.3585 59.8203C40.982 59.7446 40.6085 59.6572 40.235 59.5638C39.8615 59.4703 39.4885 59.3345 39.115 59.4128C38.9162 59.4552 38.8975 59.8143 39.0201 59.9319Z" fill="white"/>
<path d="M39.1792 60.2061C39.6718 60.5924 40.2381 60.9096 40.7555 61.2686C41.2728 61.6277 41.7871 62.0292 42.2949 62.4216C43.3785 63.2578 44.4682 64.0881 45.5609 64.9147C46.6536 65.7419 47.7433 66.56 48.8451 67.3655C49.4144 67.7821 49.9807 68.2048 50.5657 68.5972C50.8564 68.7931 51.1532 68.9744 51.4439 69.1739C51.7073 69.3547 51.9582 69.5602 52.261 69.6718C52.5275 69.7683 52.5765 69.3608 52.4664 69.2158C52.264 68.9532 51.9824 68.7543 51.7285 68.5457C51.4499 68.3164 51.19 68.0659 50.9084 67.8367C50.3512 67.3867 49.7939 66.9403 49.2312 66.4964C48.1107 65.6182 46.9781 64.7577 45.8425 63.8977C44.7069 63.0376 43.5743 62.1892 42.4326 61.3444C41.5146 60.6652 40.4648 59.7567 39.2893 59.5935C38.9804 59.5511 39.0198 60.0824 39.1792 60.2061Z" fill="white"/>
<path d="M33.6939 49.1411L33.648 49.135L33.8655 49.2921L33.8438 49.2466L33.8746 49.5032L33.8807 49.4491L33.7676 49.6541L33.8075 49.6178L33.6081 49.6572C33.8014 49.6935 34.0336 50.0041 34.1774 50.1248C34.3581 50.2758 34.5418 50.4207 34.7286 50.5626C35.0839 50.8343 35.4478 51.0969 35.8243 51.3353C36.5834 51.8211 37.3975 52.2347 38.2242 52.5968C39.0505 52.9594 39.8863 53.2432 40.7524 53.4664C41.6185 53.6896 42.5704 53.9219 43.4824 53.7709C43.7706 53.7229 43.7918 53.273 43.5319 53.1705C42.5613 52.7841 41.5054 52.6665 40.5046 52.3736C39.5037 52.0807 38.5271 51.7095 37.5903 51.26C36.6541 50.8101 35.7784 50.297 34.9401 49.7178C34.6186 49.4941 34.1714 49.0143 33.7706 48.9658C33.3694 48.9179 33.2962 49.4461 33.489 49.6966C33.5258 49.7415 33.599 49.7961 33.6667 49.787L33.7126 49.7809C34.0371 49.7385 34.0154 49.1714 33.6969 49.135L33.6939 49.1411Z" fill="white"/>
<path d="M116.052 86.5353C116.034 85.1016 115.771 83.6886 115.492 82.2852C115.214 80.8818 114.868 79.3638 114.537 77.9089C114.237 76.5959 113.986 75.2829 113.463 74.0335C113.068 73.0917 112.526 72.213 111.868 71.4287C111.011 70.4051 109.986 69.5511 108.988 68.6669C107.883 67.6857 106.778 66.708 105.673 65.7298C103.472 63.78 101.272 61.8332 99.074 59.8804C98.5597 59.4249 98.0606 58.8815 97.4852 58.5012C96.9926 58.175 96.454 57.9215 95.8878 57.7463C94.7491 57.3933 93.5338 57.3241 92.3492 57.3392C91.1646 57.3539 89.8791 57.466 88.6425 57.4811C88.3488 57.4837 88.052 57.4811 87.7578 57.4751C87.6997 57.4751 87.4888 57.4539 87.4797 57.466C87.4701 57.4781 87.5897 57.9912 87.4888 57.9609C87.51 57.967 87.568 57.9185 87.5836 57.9094C88.1222 57.6528 88.1499 56.7928 87.8405 56.3671C87.4827 55.8752 86.6161 55.8843 86.0594 55.8177C85.7288 55.7788 85.3952 55.7485 85.0646 55.7152C84.8748 55.697 84.6881 55.6788 84.4983 55.6551C84.4276 55.646 84.3575 55.6399 84.2868 55.6278C84.2227 55.6217 84.1617 55.6096 84.1001 55.5914L84.1369 56.05C84.2167 56.0384 84.2838 55.6551 84.2899 55.6005C84.3116 55.4404 84.2899 55.2743 84.247 55.1208C84.1677 54.843 83.9719 54.5956 83.6872 54.5047C83.4026 54.4143 83.0412 54.5289 82.7565 54.5683C82.3588 54.6254 81.9606 54.6829 81.5598 54.7461C80.0417 54.9789 78.5295 55.2445 77.0235 55.5399C76.653 55.6126 76.283 55.6879 75.9126 55.7606C75.741 55.7934 75.5668 55.8268 75.3952 55.8631C75.3094 55.8813 74.9117 55.9055 74.8537 55.9565C74.8688 55.9414 74.8537 56.3641 74.884 56.3701C74.89 56.3701 75.0248 56.1798 75.0465 56.15C75.1565 56.002 75.2696 55.8571 75.3862 55.7121C75.6219 55.4192 75.8697 55.1384 76.1114 54.8521C76.4849 54.4082 76.5369 53.6598 76.0504 53.2583C75.6062 52.8932 75.0858 53.2341 74.6513 53.4422C73.5803 53.9588 72.5547 54.5653 71.5569 55.2081C69.4911 56.5393 67.5413 58.0907 65.7809 59.7961C65.4013 60.1642 65.0344 60.5384 64.6761 60.9278C64.4525 61.1722 64.3944 61.5373 64.5322 61.8423C64.6301 62.0655 64.9516 62.3099 65.1752 62.0655C66.7454 60.3511 68.5482 58.833 70.4273 57.4569C71.3888 56.7534 72.377 56.0833 73.4026 55.4768C73.8831 55.193 74.3696 54.9213 74.8688 54.6708C75.0828 54.5622 75.3155 54.4749 75.5239 54.3567C75.5638 54.333 75.6188 54.3178 75.6219 54.3148C75.6092 54.333 75.5668 53.9012 75.5699 53.9012C75.5391 53.8921 75.1873 54.3537 75.1626 54.3809C74.9546 54.6345 74.7522 54.888 74.5594 55.1506C74.3666 55.4132 74.1587 55.649 74.1067 55.9656C74.027 56.4575 74.3025 57.1428 74.893 57.1398C75.2115 57.1398 75.5603 57.0039 75.8697 56.9378C76.2644 56.8529 76.6596 56.7746 77.0542 56.6994C77.7952 56.5575 78.5386 56.4247 79.2826 56.301C80.0265 56.1772 80.773 56.056 81.5169 55.9475C81.8657 55.8964 82.215 55.8449 82.5637 55.7995C82.7384 55.7758 82.9125 55.7515 83.0871 55.7303C83.185 55.7182 83.286 55.697 83.3869 55.6909C83.4238 55.6818 83.4636 55.6788 83.5005 55.6849C83.6807 55.7091 83.6842 55.5581 83.5096 55.2354C83.3168 55.4162 83.3228 55.8571 83.3748 56.0894C83.4329 56.3611 83.6014 56.6176 83.8553 56.7413C84.1309 56.8772 84.5074 56.8741 84.8133 56.9075C85.1686 56.9469 85.5234 56.9797 85.8787 57.0191C86.2335 57.0585 86.552 57.1004 86.8856 57.1701C86.9805 57.1913 87.1703 57.2786 87.2682 57.2635C87.3293 57.2544 87.409 56.7413 87.2283 56.7716C87.1612 56.7837 87.0754 56.856 87.0264 56.8984C86.6161 57.2483 86.5979 57.9609 86.9068 58.3775C87.2162 58.7936 87.8375 58.7305 88.318 58.7305C88.9211 58.7305 89.5213 58.7063 90.1239 58.676C92.386 58.5613 95.0212 58.2654 97.0264 59.5516C97.5831 59.9077 98.0606 60.4238 98.5537 60.8616C99.1043 61.3505 99.6555 61.8393 100.207 62.3251C101.284 63.279 102.364 64.236 103.445 65.1895C105.603 67.1004 107.758 69.0138 109.921 70.9182C111.55 72.3488 112.802 74.0754 113.322 76.1944C114.008 78.9805 114.687 81.7782 115.3 84.5825C115.447 85.2612 115.615 85.9253 115.801 86.5924C115.856 86.7888 116.052 86.7252 116.052 86.5353Z" fill="white"/>
<path d="M115.795 85.9131C114.4 84.229 111.685 81.8777 110.185 80.1632C108.817 80.5829 107.629 81.5484 106.953 82.7922C106.812 83.0488 106.644 83.3533 106.349 83.3775C106.154 83.3927 105.955 83.3023 105.82 83.1604C104.118 81.3888 103.522 80.5253 101.569 79.3996C99.8972 78.4366 98.4648 77.8872 96.1017 76.9034C95.8297 77.4741 95.8599 78.1321 95.8569 78.7598C95.8509 80.447 95.5909 82.1342 95.0857 83.7487L88.8232 82.6746C88.4406 82.6079 88.0368 82.5448 87.6724 82.6746C87.2808 82.8134 86.9991 83.1483 86.7448 83.4745C85.8514 84.6183 85.0247 85.8167 84.2716 87.0539C83.0018 86.9151 82.1508 85.7106 81.6764 84.5395C80.2435 85.6142 79.1326 87.0994 78.5113 88.7654C75.4078 87.57 72.9831 85.1405 70.6635 82.7831C70.0326 82.1433 69.3653 81.4126 69.3441 80.5223C67.0976 81.9347 65.4689 84.2739 64.9425 86.8489C64.0703 86.6555 63.2254 86.3358 62.4451 85.904C60.134 86.3116 57.7831 86.5136 55.4326 86.5015L55.8853 86.9635C57.5963 89.0583 58.7688 91.0712 59.3043 93.7093C59.329 94.1709 59.7545 94.3249 60.18 94.3158C62.1908 94.4335 64.0365 95.3935 65.8116 96.3353C66.7822 96.7489 67.4403 97.5034 67.5902 98.5356C68.3372 102.116 72.6435 101.934 75.0313 104.047C76.5525 102.734 80.2102 102.046 82.6253 101.744C83.2249 103.739 85.701 104.841 87.0511 106.401V106.386C89.9159 104.72 93.7265 103.82 96.8058 102.052C98.1251 104.144 99.6953 106.081 101.474 107.811C102.628 106.631 103.46 105.381 104.577 104.195C104.678 105.104 105.199 105.927 105.492 106.788C107.084 104.34 108.838 102.278 110.179 98.7709L110.151 98.9825C108.097 101.168 107.648 101.385 105.725 102.583C105.242 101.991 104.939 101.258 104.862 100.501C104.278 100.881 103.748 101.394 103.129 101.699C101.817 100.745 100.791 99.2719 99.5822 98.1402C98.9852 98.4902 98.6636 98.9911 98.116 99.3987C97.2191 99.0608 96.3742 98.5568 95.5692 98.0407C93.889 98.626 92.0584 99.0851 90.6169 100.145C88.1928 98.0887 86.1451 95.5536 83.3717 93.981L83.1946 93.9992C84.8869 91.5575 87.3969 89.8067 89.8518 88.1104C90.6967 88.5179 91.6456 89.0522 92.4899 89.4567C92.9709 89.686 93.4514 89.9183 93.9531 90.0935C95.4441 88.5932 97.0046 87.2261 98.7434 86.0157C99.4626 86.4202 100.008 86.7913 100.791 87.0539V87.06C101.976 85.8556 103.231 84.7148 104.547 83.6492L104.479 83.7038C105.193 84.3133 105.676 84.8839 106.454 85.4122L106.484 85.3758C107.066 84.9349 107.697 84.4491 108.229 83.9512C108.131 84.1143 108.266 84.3133 108.394 84.4552L109.398 85.5601C109.429 85.596 109.466 85.6324 109.512 85.6414C109.551 85.6505 109.594 85.6354 109.634 85.6233C109.971 85.5056 110.292 85.3425 110.589 85.1465C111.119 84.79 111.642 84.2921 112.281 84.3436C112.658 84.3739 112.985 84.6001 113.31 84.7931C113.989 85.2006 115.171 85.8283 115.927 86.5378" fill="white"/>
<path d="M115.89 85.6086C114.197 83.5018 112.086 81.7721 110.317 79.735C110.258 79.6653 110.173 79.6653 110.096 79.6895C108.997 80.0279 108.012 80.6945 107.298 81.5853C107.133 81.7903 106.98 82.0075 106.845 82.2312C106.726 82.4302 106.603 82.8104 106.334 82.8559C106.031 82.9069 105.771 82.5084 105.593 82.3185C105.388 82.1014 105.186 81.8837 104.984 81.6636C104.311 80.9364 103.626 80.2238 102.817 79.638C101.942 79.0012 100.981 78.4821 100.004 78.0114C98.7525 77.411 97.4579 76.8949 96.1754 76.3575C96.0467 76.303 95.915 76.3934 95.863 76.511C95.3976 77.5675 95.5722 78.7265 95.4834 79.8466C95.3855 81.0747 95.1498 82.2822 94.7854 83.4624L95.0701 83.1634L91.4921 82.5448L89.7014 82.2342C89.1628 82.1403 88.5814 81.9716 88.0303 82.0044C87.0082 82.065 86.4111 83.1276 85.8756 83.8548C85.2145 84.7542 84.5931 85.6808 84.0112 86.6318L84.2535 86.4474C83.0931 86.2873 82.3769 85.2162 81.9696 84.2259C81.9207 84.1083 81.7435 83.8154 81.5658 83.9512C80.0199 85.1223 78.8782 86.6651 78.1959 88.4639L78.5905 88.1649C76.6686 87.4105 75.0096 86.1969 73.4914 84.8269C72.7293 84.1386 72.0005 83.4144 71.2782 82.6867C70.7215 82.1221 69.7509 81.3737 69.705 80.5197C69.6959 80.3627 69.5551 79.7047 69.2306 79.9127C66.8034 81.4585 65.1721 83.9184 64.5872 86.6949L65.0217 86.2363C64.2783 86.0672 63.5591 85.8167 62.8792 85.4758C62.7384 85.4061 62.5855 85.2854 62.4265 85.2672C62.2246 85.246 61.9611 85.346 61.7623 85.3789C61.3428 85.4455 60.9234 85.5056 60.501 85.5571C58.8147 85.7682 57.1158 85.8682 55.417 85.8621C54.9183 85.8621 55.0495 86.8459 55.264 87.0666C56.5248 88.3523 57.5721 89.934 58.2575 91.5909C58.4655 92.0918 58.6431 92.6079 58.7839 93.1301C58.9126 93.6008 58.9157 94.2406 59.2614 94.6183C59.5859 94.9683 60.0296 94.9471 60.4707 94.9895C61.095 95.0496 61.7042 95.1945 62.2978 95.391C63.4581 95.7743 64.5291 96.3444 65.6097 96.9029C66.4637 97.3438 67.0542 97.7993 67.2566 98.7684C67.5963 100.407 68.7132 101.53 70.1855 102.267C71.7375 103.042 73.5343 103.459 74.8627 104.615C74.9944 104.729 75.1045 104.711 75.2296 104.606C76.1573 103.827 77.4675 103.444 78.6213 103.139C79.9407 102.795 81.2903 102.566 82.6434 102.393L82.3219 102.079C83.0351 104.325 85.4133 105.297 86.8825 106.966C87.2131 107.343 87.415 106.589 87.415 106.392V106.377L87.1642 107.011C90.2556 105.23 93.8184 104.446 96.9188 102.68L96.564 102.52C97.9106 104.645 99.5025 106.616 101.308 108.379C101.424 108.49 101.565 108.484 101.672 108.369C102.781 107.226 103.69 105.916 104.776 104.754L104.234 104.376C104.366 105.354 104.865 106.206 105.19 107.126C105.3 107.443 105.563 107.548 105.762 107.244C106.567 106.012 107.439 104.826 108.229 103.586C109.135 102.161 109.894 100.667 110.5 99.0941L109.826 98.6053L109.799 98.8164L109.955 98.421C109.257 99.1638 108.553 99.9183 107.748 100.549C107.078 101.074 106.337 101.506 105.615 101.955L105.893 102.016C105.499 101.515 105.278 100.944 105.205 100.32C105.186 100.16 104.996 99.7128 104.752 99.8759C104.167 100.265 103.65 100.752 103.019 101.077L103.298 101.135C101.939 100.129 100.966 98.729 99.7473 97.5791C99.6766 97.5125 99.5636 97.4615 99.4717 97.5216C98.9145 97.869 98.5198 98.3821 98.0055 98.7805L98.1953 98.7745C97.5068 98.5088 96.8608 98.1614 96.2304 97.7811C96.0744 97.6877 95.921 97.5822 95.762 97.4918C95.5844 97.3918 95.5293 97.4009 95.3365 97.4645C94.9908 97.5791 94.6446 97.6968 94.2988 97.8084C92.9735 98.2463 91.642 98.7078 90.5034 99.529L90.7759 99.586C89.4657 98.4695 88.269 97.2292 87.0052 96.0667C86.3834 95.4965 85.7439 94.941 85.0676 94.437C84.734 94.1896 84.3973 93.9512 84.045 93.7275C83.7694 93.5528 83.5156 93.3321 83.1759 93.3624L83.3808 94.5486C85.0827 92.1191 87.5346 90.3955 89.9558 88.7204H89.772C91.1338 89.3845 92.441 90.1935 93.8734 90.7066C93.9804 90.7455 94.0601 90.7157 94.1399 90.6369C95.5965 89.1729 97.1515 87.8119 98.8474 86.6196H98.6636C99.3339 86.9999 99.9799 87.4044 100.711 87.6609L100.445 87.0605V87.0666C100.445 87.2989 100.65 87.9235 100.975 87.5943C102.138 86.4146 103.362 85.2915 104.648 84.2441C104.871 84.0603 104.914 83.7462 104.865 83.4715C104.843 83.3447 104.66 82.865 104.437 83.0458L104.369 83.1003C104.087 83.3296 104.017 83.9815 104.317 84.2411C105.003 84.836 105.624 85.4879 106.374 86.0101C106.456 86.0672 106.579 86.001 106.631 85.9404C106.873 85.6718 107.246 85.4607 107.528 85.2344C107.828 84.9925 108.122 84.742 108.403 84.4794L107.923 83.6467C107.764 84.1386 107.904 84.6062 108.232 84.9925C108.56 85.3789 108.881 85.7627 109.236 86.0944C109.57 86.4055 110.001 86.1278 110.344 85.9434C110.732 85.7323 111.063 85.4425 111.44 85.2132C111.841 84.9688 112.235 84.8718 112.679 85.0743C113.028 85.2314 113.349 85.4607 113.68 85.6505C114.372 86.052 115.241 86.2788 115.838 86.8247C116.068 87.0363 116.169 86.4055 116.003 86.2545C115.443 85.7384 114.907 85.2344 114.289 84.7784C114.023 84.5794 113.739 84.4194 113.451 84.2502C113.123 84.0542 112.808 83.8366 112.428 83.7613C111.66 83.6073 111.066 84.1689 110.479 84.5582C110.31 84.6698 110.139 84.7693 109.955 84.8567C109.866 84.8991 109.747 84.9779 109.649 84.9895C109.508 85.0046 109.564 85.0137 109.444 84.9173C109.26 84.7663 109.101 84.54 108.942 84.3648C108.844 84.2593 108.52 84.0148 108.504 83.8851L108.483 84.3618L108.517 84.2593C108.593 84.0179 108.468 83.0276 108.036 83.426C107.733 83.7068 107.417 83.9724 107.093 84.229C106.827 84.4406 106.487 84.6304 106.261 84.884L106.518 84.8148C105.826 84.3345 105.26 83.7129 104.626 83.1634L104.574 84.3047L104.642 84.2502L104.431 83.0548C103.09 84.1446 101.807 85.3006 100.595 86.5262L101.125 87.0544V87.0484C101.125 86.8762 101.061 86.5201 100.858 86.4474C100.127 86.1909 99.4808 85.7864 98.8105 85.4061C98.7494 85.3788 98.6884 85.3789 98.6268 85.4092C96.8729 86.6378 95.2629 88.0412 93.7573 89.5502L94.0233 89.481C92.5909 88.9679 91.2872 88.1589 89.9219 87.4978C89.8609 87.4675 89.7963 87.4706 89.7382 87.5009C87.2651 89.2093 84.737 90.9753 82.9982 93.4533C82.8423 93.6735 82.6984 94.6875 83.2031 94.639C83.4757 94.6153 83.7634 94.884 83.99 95.0314C84.3327 95.2551 84.6633 95.4905 84.9848 95.7409C85.6369 96.2449 86.2552 96.7944 86.8578 97.3559C88.055 98.4695 89.1967 99.6436 90.4423 100.706C90.5094 100.763 90.626 100.83 90.7149 100.763C92.1871 99.7012 93.9713 99.2482 95.6702 98.6598L95.4804 98.6659C96.2334 99.1487 97.0016 99.6133 97.8344 99.9516C98.0363 100.033 98.1342 100.072 98.3149 99.9456C98.4739 99.8309 98.6207 99.689 98.7615 99.5532C99.0583 99.2694 99.3309 98.9825 99.6832 98.7654L99.4076 98.7078C100.625 99.8607 101.596 101.262 102.955 102.27C103.041 102.333 103.123 102.384 103.233 102.327C103.864 102.001 104.382 101.518 104.966 101.129L104.513 100.685C104.62 101.596 104.981 102.43 105.55 103.154C105.609 103.227 105.746 103.265 105.829 103.214C106.674 102.689 107.525 102.179 108.293 101.545C108.71 101.204 109.095 100.83 109.475 100.45C109.735 100.19 109.995 99.9274 110.24 99.6557C110.436 99.4386 110.488 99.2239 110.524 98.9431C110.555 98.7078 110.521 98.3245 110.295 98.1766C110.068 98.0286 109.924 98.2644 109.851 98.4543C109.266 99.9698 108.501 101.406 107.623 102.774C106.848 103.981 106.001 105.137 105.217 106.338L105.789 106.456C105.505 105.644 105.03 104.88 104.917 104.017C104.886 103.788 104.642 103.353 104.375 103.64C103.289 104.802 102.379 106.112 101.272 107.256L101.636 107.247C99.8881 105.541 98.3482 103.646 97.0445 101.59C96.9708 101.476 96.8366 101.346 96.6892 101.43C94.9999 102.393 93.1753 103.079 91.3634 103.779C90.4822 104.12 89.6035 104.464 88.7404 104.85C88.327 105.037 87.9172 105.233 87.5129 105.445C87.0572 105.683 86.6807 105.84 86.6807 106.414L87.2131 105.84C86.506 105.041 85.6213 104.421 84.8011 103.746C84.0269 103.105 83.2339 102.393 82.9215 101.415C82.8852 101.294 82.7625 101.08 82.6005 101.102C81.1742 101.282 79.7539 101.53 78.3675 101.904C77.1183 102.239 75.8237 102.659 74.8259 103.501L75.1933 103.492C73.9996 102.453 72.4814 101.968 71.0486 101.346C69.7171 100.769 68.3185 99.9754 67.9511 98.4755C67.7215 97.5428 67.4338 96.7338 66.6166 96.1394C66.1881 95.8253 65.6859 95.6112 65.215 95.3667C64.6851 95.092 64.1496 94.8234 63.602 94.585C62.4875 94.1022 61.3247 93.7548 60.1063 93.6795C59.9624 93.6704 59.7328 93.6704 59.6319 93.5437C59.5768 93.474 59.5279 93.0276 59.485 92.8614C59.3472 92.3181 59.1852 91.7838 58.9858 91.2616C58.2424 89.3118 57.0578 87.4468 55.5886 85.9525L55.4356 87.157C57.0851 87.163 58.735 87.0691 60.3728 86.8671C60.7705 86.8186 61.1652 86.7646 61.5604 86.704C61.7562 86.6742 61.9551 86.6318 62.1509 86.6075C62.3836 86.5802 62.4997 86.6196 62.7051 86.7222C63.3844 87.0605 64.1067 87.311 64.8476 87.4797C65.1414 87.5463 65.2332 87.2504 65.2822 87.0211C65.7874 84.6183 67.3606 82.4726 69.4385 81.1475L68.9641 80.5409C69.0287 81.6969 69.6899 82.5478 70.4762 83.3508C71.2631 84.1537 72.0343 84.9324 72.8514 85.6839C74.4953 87.1933 76.3072 88.5634 78.4134 89.3845C78.6274 89.4688 78.747 89.2456 78.8081 89.0855C79.3956 87.5342 80.4393 86.155 81.7647 85.1435L81.3609 84.8688C81.8904 86.1459 82.7686 87.4766 84.2686 87.6761C84.3726 87.6912 84.4675 87.5615 84.5104 87.4918C85.0615 86.5863 85.646 85.699 86.2764 84.8451C86.5701 84.4436 86.8608 84.0179 87.204 83.6528C87.5467 83.2871 87.9323 83.1786 88.4315 83.227C89.5086 83.3356 90.5861 83.5831 91.6511 83.7644L95.0796 84.3466C95.2265 84.3709 95.3335 84.1507 95.3643 84.0482C95.7131 82.916 95.9548 81.754 96.0744 80.5768C96.1325 79.9976 96.1628 79.4148 96.1658 78.8325C96.1658 78.3285 96.1168 77.7821 96.3223 77.3079L96.0098 77.462C98.2013 78.3644 100.518 79.1855 102.465 80.5556C103.307 81.1475 104.017 81.8868 104.718 82.6327C104.908 82.8347 105.098 83.0367 105.291 83.2392C105.508 83.4684 105.719 83.7522 106.031 83.8608C106.588 84.0542 106.922 83.577 107.154 83.1604C107.831 81.9565 108.927 81.0747 110.252 80.6404L110.032 80.595C111.801 82.5812 113.937 84.2168 115.682 86.2212C115.792 86.3479 115.918 86.1909 115.957 86.0884C116.016 85.9313 115.976 85.7414 115.872 85.6117L115.89 85.6086Z" fill="white"/>
<path d="M110.093 98.8437C109.576 102.592 108.581 106.341 106.092 109.314C103.888 111.943 100.828 113.621 97.6748 114.907C96.781 115.272 95.875 115.61 94.963 115.93C94.6203 116.051 94.2468 116.238 93.8885 116.259C93.5675 116.277 93.2308 116.265 92.9093 116.259C90.9868 116.211 89.0462 115.927 87.1364 115.734C84.7642 115.493 82.395 115.245 80.0198 115.043C79.4813 114.998 78.915 114.998 78.3825 114.904C77.7426 114.793 77.1001 114.569 76.4818 114.376C75.3123 114.005 74.1707 113.552 73.0659 113.021C69.0867 111.107 65.7348 108.185 61.8753 106.075C61.3428 105.786 60.8007 105.508 60.2561 105.246C59.7418 104.998 59.6101 106.296 60.0754 106.519C62.2271 107.554 64.2323 108.828 66.1972 110.168C68.0151 111.409 69.818 112.677 71.7617 113.721C72.7963 114.279 73.8678 114.771 74.9696 115.191C75.5692 115.417 76.1815 115.622 76.7967 115.807C77.412 115.99 78.052 116.211 78.6945 116.256C81.0757 116.434 83.4479 116.682 85.8231 116.923C87.9782 117.144 90.1329 117.379 92.2941 117.545C92.8603 117.587 93.5028 117.663 94.0661 117.587C94.5466 117.521 95.067 117.249 95.5232 117.086C95.979 116.923 96.4534 116.745 96.9157 116.567C100.185 115.3 103.42 113.688 105.85 111.125C108.523 108.306 109.832 104.6 110.372 100.833C110.457 100.241 110.509 99.6496 110.552 99.0548C110.561 98.9159 110.555 98.6114 110.378 98.5599C110.2 98.5089 110.12 98.7109 110.102 98.8497L110.093 98.8437Z" fill="white"/>
<path d="M308.377 105.942C310.273 106.922 311.656 108.17 312.664 109.843C314.96 113.665 313.505 117.87 309.283 119.255C306.534 120.157 303.684 120.426 300.798 120.109C298.973 119.912 298.251 119.195 298.192 117.332C298.126 115.283 298.156 113.235 298.192 111.186C298.258 107.023 298.347 102.86 298.436 98.6917C298.442 98.3574 298.556 98.0286 298.645 97.5509C299.307 97.4433 299.963 97.2701 300.625 97.2403C303.356 97.1206 305.908 97.8195 308.251 99.1815C309.056 99.6471 309.79 100.328 310.386 101.051C311.507 102.406 311.34 103.672 309.998 104.796C309.545 105.178 309.032 105.482 308.383 105.942H308.377ZM299.742 118.383C300.476 118.425 301.221 118.556 301.936 118.479C304.029 118.252 306.152 118.085 308.197 117.625C310.297 117.147 311.913 115.349 311.853 113.677C311.763 111.312 310.821 109.209 308.782 107.931C306.069 106.223 302.992 106.3 299.736 106.39V118.383H299.742ZM299.325 98.3574C299.444 100.71 299.546 102.795 299.659 105.034C302.414 105.154 304.978 105.393 307.5 104.64C307.953 104.503 308.412 104.336 308.806 104.085C310.088 103.279 310.183 102.556 309.199 101.445C309.021 101.242 308.83 101.033 308.603 100.883C305.86 99.0679 302.873 98.166 299.319 98.3574H299.325Z" fill="white"/>
<path d="M335.376 105.698C336.563 106.522 337.637 107.113 338.537 107.913C342.109 111.103 341.781 116.412 337.809 118.676C336.724 119.291 335.37 119.613 334.118 119.697C332.091 119.834 330.04 119.655 327.994 119.619C327.35 119.607 326.7 119.619 325.866 119.619C325.806 119.512 325.502 119.237 325.496 118.95C325.401 113.492 325.323 108.039 325.281 102.58C325.275 101.63 325.424 100.68 325.52 99.7309C325.627 98.6795 326.259 98.172 327.279 98.0942C330.052 97.8852 332.723 98.327 335.257 99.4562C335.806 99.7012 336.319 100.095 336.736 100.531C338.644 102.52 338.328 104.073 336.235 105.124C335.997 105.244 335.788 105.417 335.37 105.698H335.376ZM326.802 118.485C329.992 118.968 333.009 118.807 335.907 117.612C337.827 116.818 339.527 113.109 338.877 111.192C338.262 109.376 337.124 107.931 335.299 107.208C332.526 106.11 329.724 106.665 326.808 106.946V118.491L326.802 118.485ZM326.808 105.506C328.316 105.506 329.628 105.679 330.88 105.465C332.532 105.178 334.178 104.706 335.728 104.079C337.028 103.547 337.153 102.52 336.217 101.481C335.818 101.039 335.293 100.657 334.757 100.4C332.127 99.1275 329.336 98.9366 326.444 99.1457C326.569 101.32 326.689 103.327 326.814 105.512L326.808 105.506Z" fill="white"/>
<path d="M284.692 109.132C285.616 109.197 286.344 109.245 287.482 109.323C286.683 109.938 286.183 110.32 285.521 110.828C286.547 113.742 287.596 116.729 288.645 119.709L288.168 119.906C286.451 117.183 285.539 114.035 283.911 111.085C283.314 111.21 282.73 111.324 282.158 111.467C279.045 112.231 275.938 113.044 272.814 113.754C271.651 114.017 270.87 114.501 270.464 115.696C270.077 116.83 269.475 117.893 268.759 118.933C268.306 117.511 269.343 116.317 269.361 114.823H267.394L267.322 114.543C267.602 114.388 267.864 114.16 268.163 114.101C269.874 113.748 270.453 112.452 271.067 111.007C272.737 107.041 274.543 103.129 276.314 99.2052C276.618 98.5361 277.018 97.9094 277.322 97.36C278.586 97.1625 278.968 97.9927 279.343 98.6795C280.727 101.188 282.062 103.733 283.38 106.277C283.851 107.179 284.233 108.128 284.692 109.138V109.132ZM283.13 109.681C281.257 105.871 279.54 102.371 277.62 98.4649C275.634 103.332 273.828 107.764 271.83 112.661C275.807 111.61 279.301 110.69 283.136 109.681H283.13Z" fill="white"/>
<path d="M243.47 119.649C243.369 118.861 243.166 118.067 243.178 117.278C243.28 112.082 243.429 106.886 243.566 101.69C243.566 101.487 243.596 101.278 243.619 101.075C243.912 98.5063 244.222 98.2316 246.816 98.1301C250.34 97.9988 253.59 98.7932 256.392 101.039C256.762 101.337 257.12 101.66 257.442 102.013C260.405 105.19 260.012 108.212 256.344 110.475C255.832 110.792 255.313 111.109 254.591 111.55C256.171 114.131 257.322 116.854 259.254 119.148C256.422 117.493 254.895 114.781 253.357 111.95H245.086C244.937 113.253 244.74 114.585 244.639 115.928C244.538 117.224 244.562 118.538 243.989 119.703L243.47 119.649ZM244.991 110.487C247.621 110.583 249.994 110.798 252.361 110.714C254.09 110.655 255.652 109.848 256.952 108.678C258.408 107.37 258.67 105.913 257.59 104.288C257 103.398 256.189 102.609 255.342 101.952C252.242 99.5578 248.557 99.5219 244.991 99.3608V110.487Z" fill="white"/>
<path d="M401.237 99.8981C397.039 97.9392 390.157 99.4381 389.186 102.914C389.937 103.225 390.712 103.577 391.505 103.876C394.051 104.831 396.741 105.465 398.923 107.238C400.659 108.648 402.006 110.32 402.65 112.5C403.825 116.448 401.761 120.109 397.766 120.939C394.713 121.572 391.762 121.035 389.061 119.518C386.878 118.293 386.085 116.221 386.18 113.796C386.198 113.33 386.502 112.882 386.801 112.47C386.294 114.638 387.075 117.332 388.953 118.317C392.161 120.008 395.548 120.521 398.947 118.759C400.939 117.726 401.797 115.546 401.219 113.354C400.491 110.601 398.524 108.977 396.115 107.811C394.153 106.862 392.131 106.032 390.14 105.136C389.77 104.969 389.388 104.79 389.061 104.557C387.683 103.559 387.534 102.335 388.733 101.099C390.653 99.1098 393.038 97.9751 395.775 97.6822C396.92 97.563 398.1 97.5988 399.251 97.712C400.628 97.8493 401.052 98.3629 401.231 99.8981H401.237Z" fill="white"/>
<path d="M380.307 100.161H372.651C373.259 106.999 372.883 113.545 371.726 120.157C370.725 119.709 370.981 119.034 370.987 118.473C371.052 112.655 371.136 106.844 371.208 101.027C371.208 100.83 371.148 100.627 371.088 100.232C368.542 99.9638 365.954 99.689 363.038 99.3845C365.781 98.0165 377.254 98.369 380.313 99.7249V100.167L380.307 100.161Z" fill="white"/>
<path d="M351.989 119.488C351.828 118.61 351.524 117.726 351.536 116.848C351.584 112.823 351.703 108.803 351.84 104.777C351.9 103.01 352.031 101.242 352.222 99.486C352.258 99.1335 352.71 98.823 352.967 98.4947C353.212 98.8411 353.617 99.1694 353.671 99.5456C353.784 100.352 353.772 101.182 353.718 102C353.349 107.579 352.955 113.157 352.561 118.736C352.544 118.974 352.454 119.207 352.394 119.446L351.995 119.494L351.989 119.488Z" fill="white"/>
<path d="M196.141 0.995523C197.981 1.73292 198.901 2.76529 198.901 4.09264C198.901 5.41998 197.981 7.11602 196.141 9.18077C195.331 9.10698 194.153 9.07012 192.607 9.07012C189.22 9.07012 185.981 9.54946 182.888 10.5081C179.796 11.3928 176.594 12.7942 173.281 14.7112C171.735 15.6702 170.41 16.8867 169.305 18.3613C168.495 19.2466 168.091 20.2788 168.091 21.4585C168.091 23.4497 169.195 25.3667 171.403 27.2104C173.538 29.4228 177.036 33.4416 181.895 39.2668L184.435 41.9216C188.042 45.8298 190.876 49.1481 192.938 51.8766C195.073 54.6052 196.877 57.7392 198.349 61.2787C198.938 62.8271 199.233 64.2284 199.233 65.4819C199.233 68.6527 198.018 71.5656 195.589 74.2204C192.791 77.3175 189.551 79.5663 185.87 80.9677C182.189 82.4423 178.029 83.3639 173.392 83.7326C172.803 83.8063 172.103 83.88 171.293 83.9537C170.483 84.0275 169.563 84.0643 168.532 84.0643C167.869 84.0643 166.876 83.9906 165.551 83.8431C163.931 83.9169 162.238 83.622 160.471 82.9584C158.704 82.3686 157.084 81.4838 155.611 80.3036C152.814 77.9442 151.415 75.3263 151.415 72.4503C151.415 70.0168 152.446 67.5468 154.507 65.0395C155.538 65.1869 156.127 65.5187 156.274 66.0348C156.495 66.4772 156.532 66.9938 156.385 67.5837C156.311 68.1735 156.274 68.6528 156.274 69.0214C156.274 69.2426 156.348 69.5744 156.495 70.0168C159.366 71.3444 162.79 72.008 166.765 72.008C171.182 72.008 175.342 71.2707 179.244 69.7956C183.22 68.2472 185.649 66.3666 186.533 64.1547C187.048 62.6796 185.796 60.0986 182.778 56.4116C179.76 52.6508 176.373 49.0007 172.618 45.4611C169.084 42.2902 165.882 39.1562 163.011 36.059C161.391 34.2895 160.102 32.2614 159.145 29.9758C158.262 27.6159 157.82 25.1823 157.82 22.6755C157.82 19.2834 158.667 16.0757 160.36 13.0522C162.127 10.0288 164.741 7.55845 168.201 5.64117C174.827 1.88038 181.6 1.52588e-05 188.52 1.52588e-05C189.478 1.52588e-05 190.84 0.0737447 192.607 0.221255C194.226 0.368715 195.404 0.626822 196.141 0.995523Z" fill="white"/>
<path d="M210.408 97.4484C210.408 77.465 210.372 62.4953 210.298 52.5402C210.298 50.6232 210.593 49.1481 211.182 48.1159C211.844 47.01 213.059 46.1247 214.826 45.4611C217.844 44.3552 221.673 42.7695 226.311 40.705L232.054 38.1608C233.011 37.7922 234.336 37.6816 236.029 37.8291C240.373 38.124 243.502 39.2299 245.416 41.1474C247.33 42.9912 248.287 45.6455 248.287 49.1113C248.287 51.0288 247.919 53.5361 247.183 56.6327C246.447 59.6562 244.717 63.6017 241.993 68.4684C239.563 72.8927 236.139 75.1051 231.722 75.1051C230.176 75.1051 228.63 74.8471 227.084 74.331C226.053 74.0361 225.391 73.8886 225.096 73.8886C223.55 73.8886 222.888 75.1789 223.109 77.7599C223.329 83.2165 223.44 88.5629 223.44 93.7982C223.513 95.0521 223.55 96.8585 223.55 99.2184C223.55 100.619 223.513 101.689 223.44 102.426L223.329 105.523C223.329 107.44 222.74 108.989 221.562 110.169C220.385 111.348 218.838 111.939 216.924 111.939C215.231 111.939 213.758 111.312 212.507 110.058C211.255 108.805 210.63 107.33 210.63 105.634V97.4484H210.408ZM222.667 54.8632C222.299 55.1581 222.004 55.6743 221.783 56.4116C221.636 57.0756 221.525 57.7761 221.452 58.5134C221.379 59.1769 221.268 59.8036 221.121 60.394C221.194 60.4677 221.268 60.5046 221.342 60.5046C221.489 60.5046 221.599 60.5414 221.673 60.6152C221.673 61.0576 221.71 61.8317 221.783 62.9377C221.857 64.0441 221.968 65.0395 222.114 65.9242C222.335 66.9565 222.703 67.768 223.219 68.3578C223.735 68.8739 224.323 69.132 224.986 69.132C225.869 69.132 226.753 68.7265 227.636 67.9155C232.495 63.7861 235.293 57.7761 236.029 49.8859C236.029 49.5168 235.698 48.9638 235.035 48.2265C234.372 47.4892 234.005 47.1574 233.931 47.2312C232.017 48.4108 230.029 49.6643 227.968 50.9919C225.906 52.2453 224.139 53.5361 222.667 54.8632Z" fill="white"/>
<path d="M283.553 72.3398C281.27 73.7406 278.656 74.4416 275.712 74.4416C272.473 74.4416 269.343 73.63 266.325 72.008C263.38 70.3117 261.024 67.9155 259.257 64.8183C257.49 61.7211 256.754 58.1816 257.048 54.1997L257.601 51.5449C258.042 48.8901 258.411 46.9362 258.705 45.6823C259.368 42.9538 260.693 41.0368 262.681 39.9309C264.669 38.8244 267.319 37.9397 270.632 37.2761C272.767 36.8337 274.865 36.6125 276.927 36.6125C283.405 36.6125 288.853 38.7876 293.27 43.1386C295.626 45.498 296.804 48.374 296.804 51.7661C296.804 55.0844 295.59 58.6608 293.16 62.4953C290.362 66.8459 287.16 70.1274 283.553 72.3398ZM274.276 42.2534C273.098 45.1294 271.847 48.7058 270.521 52.9826L269.417 56.301L270.19 56.6327C270.19 57.1494 270.19 57.9604 270.19 59.0663C270.263 60.0986 270.411 60.9838 270.632 61.7211C271.441 64.0073 272.362 65.4081 273.393 65.9242C273.834 66.1454 274.46 66.0348 275.27 65.5925C276.153 65.1501 276.927 64.634 277.589 64.0441C278.619 63.1589 280.276 61.3156 282.558 58.5134C284.252 56.5959 285.099 54.3103 285.099 51.6555C285.099 49.3693 284.436 47.3049 283.11 45.4611C281.859 43.6179 280.092 42.364 277.81 41.7004C277.589 41.6267 277.184 41.5898 276.595 41.5898C275.196 41.5898 274.423 41.811 274.276 42.2534Z" fill="white"/>
<path d="M345.283 42.2534C345.946 43.581 346.535 45.0925 347.05 46.7888C347.639 48.4108 348.044 49.4799 348.265 49.9965L349.259 52.872C348.375 57.0756 347.492 60.5414 346.609 63.2694C345.725 65.9242 344.436 68.4316 342.744 70.7914C341.05 73.0771 338.731 74.9577 335.786 76.4323C333.062 77.8336 330.154 78.5341 327.062 78.5341C323.675 78.5341 320.399 77.7599 317.233 76.2111C314.141 74.6627 311.528 72.5241 309.392 69.7956C307.258 66.9933 306.006 63.8598 305.638 60.394C305.491 58.6239 305.417 57.2599 305.417 56.301C305.417 53.7204 305.785 51.3605 306.522 49.2219C307.331 47.0837 308.73 45.1293 310.718 43.3598C311.307 42.8432 311.97 41.8478 312.706 40.3732C313.368 39.0456 313.994 38.0502 314.583 37.3867C317.675 34.0683 321.356 32.4089 325.626 32.4089C327.761 32.4089 330.265 32.8886 333.136 33.8471C333.504 33.9946 334.719 34.437 336.78 35.1743C338.915 35.9116 340.682 36.8706 342.081 38.0502C343.48 39.2299 344.547 40.6313 345.283 42.2534ZM326.068 38.6032C323.344 40.8156 321.393 43.4704 320.215 46.5676C319.111 49.5905 318.117 53.6835 317.233 58.8451C317.381 59.435 317.712 60.6889 318.228 62.6059C318.743 64.5234 319.369 66.2929 320.105 67.9154C320.915 69.9062 322.35 70.902 324.411 70.902C324.78 70.902 325.479 70.8283 326.51 70.6808C328.792 70.2379 330.78 68.9477 332.473 66.809C334.24 64.5971 335.602 62.016 336.559 59.0663C337.516 56.1166 337.995 53.3886 337.995 50.8813C337.995 45.9404 335.97 41.7741 331.921 38.382C330.89 37.571 329.97 37.1655 329.16 37.1655C328.277 37.1655 327.246 37.6447 326.068 38.6032Z" fill="white"/>
<path d="M372.568 30.0864C372.568 30.4551 372.458 31.3398 372.237 32.7412C372.089 34.0683 372.016 35.1374 372.016 35.9484C372.016 36.5388 372.089 36.9074 372.237 37.0549L375.439 33.9577C376.617 32.6301 377.648 31.5979 378.532 30.8606C380.446 29.0905 382.397 28.2058 384.384 28.2058C386.004 28.2058 387.219 28.8325 388.029 30.0864C388.471 30.8237 388.691 31.6716 388.691 32.6301C388.691 33.3679 388.544 33.9209 388.25 34.2895C387.145 35.9853 385.158 38.5295 382.286 41.9216C381.182 43.1018 380.63 44.2446 380.63 45.3505C380.63 46.3833 381.145 47.5261 382.176 48.7795C383.059 49.8122 384.311 51.3605 385.93 53.4255C389.096 57.4811 391.894 60.7626 394.323 63.2695C396.827 65.7031 399.698 67.7311 402.937 69.3532C403.305 69.5006 403.6 69.8693 403.821 70.4596C404.042 70.9758 404.115 71.3813 404.042 71.6762C403.968 72.0448 403.673 72.4135 403.158 72.7821C402.643 73.1508 402.201 73.2983 401.833 73.2245C400.729 72.9296 399.808 72.7453 399.072 72.6715C395.244 71.9342 392.519 71.0126 390.9 69.9062C388.25 68.0629 384.495 64.8552 379.636 60.2834C376.691 57.5549 375.182 56.1535 375.108 56.0798L373.12 54.1996C371.574 52.6508 370.801 51.8767 370.801 51.8767C370.654 52.2453 370.58 52.7983 370.58 53.5361C370.58 54.1997 370.617 54.937 370.691 55.748C370.838 56.4853 370.875 57.0019 370.801 57.2968C370.359 65.5556 370.065 71.6025 369.918 75.4369C369.77 77.8705 369.181 79.7138 368.151 80.9677C367.194 82.2211 365.831 82.7003 364.065 82.4054C363.476 82.3317 362.813 82.0368 362.077 81.5207C361.414 81.0045 361.009 80.4879 360.862 79.9718C360.052 76.7272 359.648 73.5563 359.648 70.4596C359.648 61.5368 359.758 52.6508 359.979 43.8022L361.083 7.74283C361.157 3.83453 363.181 1.88039 367.157 1.88039C369.881 1.88039 371.869 2.3966 373.12 3.42897C374.372 4.46134 374.924 6.08366 374.777 8.29586L373.672 19.5784C373.378 22.1589 373.01 25.6616 372.568 30.0864Z" fill="white"/>
<path d="M435.361 57.7392C436.687 52.3559 437.496 48.1897 437.791 45.2399C438.159 42.2165 438.785 40.0783 439.668 38.8244C440.552 37.571 442.024 36.9443 444.085 36.9443C447.178 36.9443 449.644 37.6447 451.485 39.0456C453.325 40.447 454.245 42.364 454.245 44.7976C454.245 45.0925 454.172 45.6823 454.024 46.5676C452.92 52.614 451.117 58.9189 448.613 65.4819C444.638 76.248 440.368 87.014 435.803 97.7801C434.404 100.951 432.306 104.011 429.508 106.961C428.846 107.698 428.22 108.067 427.631 108.067C426.747 108.067 426.085 107.109 425.643 105.192C425.201 103.2 424.981 101.283 424.981 99.4396C424.981 97.3009 425.201 95.1627 425.643 93.0241C426.085 90.9591 426.711 88.4523 427.521 85.5026C428.257 82.7003 428.772 80.5985 429.067 79.1977C429.361 77.7231 429.508 76.6903 429.508 76.1005C429.508 73.8144 428.404 71.9342 426.195 70.4596C422.367 67.9523 419.459 64.7814 417.471 60.947C415.557 57.0388 414.011 52.3928 412.833 47.01C412.76 46.7888 412.723 46.457 412.723 46.0141C412.723 44.687 413.238 43.5441 414.269 42.5852C415.299 41.6267 416.477 41.1474 417.802 41.1474C418.612 41.1474 419.312 41.2949 419.901 41.5898C421.815 42.4008 423.324 43.4336 424.429 44.687C425.533 45.8666 426.343 47.4524 426.858 49.4431C427.299 51.2868 427.962 53.2038 428.846 55.195C429.729 57.1862 430.245 58.4028 430.392 58.8451L431.938 62.4953H434.368L435.361 57.7392Z" fill="white"/>
</g>
<defs>
<clipPath id="clip0_2002_22">
<rect width="455" height="122" fill="white"/>
</clipPath>
</defs>
</svg>
